<?xml version="1.0" encoding="iso-8859-1"?>
<!-- Uploaded to: SVG Repo, www.svgrepo.com, Generator: SVG Repo Mixer Tools -->
<svg fill="#FFFFFF" height="800px" width="800px" version="1.1" id="Layer_1"
     xmlns="http://www.w3.org/2000/svg"
     viewBox="0 0 512 400" xml:space="preserve">
<g transform="translate(1 1)">
	<g>
		<g>
            <path d="M255,263.533c-5.12,0-8.533,3.413-8.533,8.533c0,5.12,3.413,8.533,8.533,8.533s8.533-3.413,8.533-8.533
				C263.533,266.947,260.12,263.533,255,263.533z"/>
            <path d="M331.8,255c-5.12,0-8.533,3.413-8.533,8.533s3.413,8.533,8.533,8.533c5.12,0,8.533-3.413,8.533-8.533
				S336.92,255,331.8,255z"/>
            <path d="M400.067,237.933c-5.12,0-8.533,3.413-8.533,8.533s3.413,8.533,8.533,8.533c5.12,0,8.533-3.413,8.533-8.533
				S405.187,237.933,400.067,237.933z"/>
            <path d="M109.933,237.933c-5.12,0-8.533,3.413-8.533,8.533s3.413,8.533,8.533,8.533s8.533-3.413,8.533-8.533
				S115.053,237.933,109.933,237.933z"/>
            <path d="M178.2,255c-5.12,0-8.533,3.413-8.533,8.533s3.413,8.533,8.533,8.533s8.533-3.413,8.533-8.533S183.32,255,178.2,255z"/>
            <path d="M511,246.467c0-39.635-80.498-59.332-121.593-66.365c-10.718-58.597-60.944-100.67-125.874-104.07V50.2h8.533
				l8.533-8.533V7.533L272.067-1h-34.133L229.4,7.533v34.133l8.533,8.533h8.533v25.831
				c-64.976,3.402-115.228,45.533-125.898,104.195C79.467,187.908-1,206.84-1,246.467c0,21.079,24.001,38.13,61.106,50.764
				C87.072,353.618,165.265,391.533,255,391.533c89.227,0,167.036-37.489,194.425-94.144C486.795,284.739,511,267.634,511,246.467z
				 M246.467,16.067h17.067v17.067h-17.067V16.067z M255,92.867c65.404,0,115.582,43.968,119.409,104.126l-25.543,8.514
				c-60.587,20.48-127.147,20.48-187.733,0l-25.543-8.514c0.083-1.308,0.189-2.608,0.315-3.901c0.194-1.364,0.394-2.735,0.456-3.967
				C143.873,133.039,192.482,92.867,255,92.867z M425.667,304.493c-30.72,41.813-97.28,69.973-170.667,69.973
				c-74.24,0-139.947-28.16-170.667-69.973c46.08,11.947,107.52,18.773,170.667,18.773S379.587,316.44,425.667,304.493z
				 M355.053,300.29c-0.482,0.06-0.964,0.12-1.447,0.179c-1.067,0.132-2.141,0.261-3.219,0.389
				C320.587,304.36,288.255,306.2,255,306.2c-20.12,0-39.903-0.673-58.993-1.961c-112.568-7.703-179.941-36.516-179.941-57.773
				c0-14.507,32.427-35.84,102.4-48.64c0,1.707,0,3.413,0,5.973v5.973l36.693,12.8c64,21.333,134.827,21.333,198.827,0l37.547-12.8
				V203.8c0-2.56,0-5.12,0-5.973c69.973,13.653,102.4,34.133,102.4,48.64C493.933,264.995,442.742,289.264,355.053,300.29z"/>
		</g>
	</g>
</g>
</svg>